Coordinates
version=1
nRows=24
nColumns=22
inDegrees=yes

Units are S.I. units (second, meters, Newtons, ...)
If the header above contains a line with 'inDegrees', this indicates whether rotational values are in degrees (yes) or radians (no).

endheader
time	pelvis_tilt	pelvis_list	pelvis_rotation	pelvis_tx	pelvis_ty	pelvis_tz	hip_flexion_r	hip_adduction_r	hip_rotation_r	knee_angle_r	ankle_angle_r	subtalar_angle_r	hip_flexion_l	hip_adduction_l	hip_rotation_l	knee_angle_l	ankle_angle_l	subtalar_angle_l	lumbar_extension	lumbar_bending	lumbar_rotation
      2.88000000	      2.67427148	      1.53898718	      8.68201288	      0.47462181	      0.92727258	     -0.05460598	     20.02709549	    -12.46198030	     -8.51400975	    -70.14342727	      8.79721105	      5.22813590	      8.02617239	      6.51050656	     -6.86312386	    -27.95286002	     16.00069019	    -12.24636189	    -13.00324291	     -3.76267430	    -10.73208794
      2.89000000	      2.50859394	      1.75237390	      8.49849020	      0.46993326	      0.92672881	     -0.05426304	     18.67589371	    -12.51337414	     -8.59082662	    -70.45517101	      8.42842277	      5.53488791	      8.54768207	      6.76415985	     -7.11020154	    -28.02420361	     15.75165205	    -12.34806711	    -12.61429179	     -4.18847451	    -10.23982667
      2.90000000	      2.32628750	      1.93950468	      8.30143923	      0.46523998	      0.92613156	     -0.05385322	     17.27210278	    -12.51062390	     -8.71810978	    -70.56055004	      7.94432342	      5.65195048	      9.10696835	      6.98293021	     -7.36378145	    -28.11766171	     15.46050086	    -12.42134368	    -12.18046575	     -4.58675051	     -9.70853107
      2.91000000	      2.17695053	      2.15027430	      8.05356029	      0.46050572	      0.92553989	     -0.05329614	     15.79312806	    -12.47793607	     -8.81035498	    -70.48605834	      7.40067881	      5.92725664	      9.63287241	      7.21211248	     -7.63627429	    -28.20801606	     15.21280260	    -12.53238217	    -11.77929999	     -5.02359002	     -9.07060594
      2.92000000	      1.98260464	      2.33341485	      7.81857524	      0.45571010	      0.92483592	     -0.05270624	     14.31095224	    -12.40765393	     -8.96666412	    -70.21589985	      6.78535688	      6.07331561	     10.24976506	      7.40323204	     -7.92796595	    -28.35529003	     14.93416290	    -12.61499180	    -11.30428862	     -5.42716083	     -8.45250855
      2.93000000	      1.79090795	      2.51204831	      7.54578996	      0.45082397	      0.92409169	     -0.05196258	     12.80947944	    -12.28627540	     -9.09685089	    -69.77077912	      6.12144748	      6.26265432	     10.88784980	      7.57389778	     -8.23121977	    -28.52703653	     14.67657578	    -12.70062353	    -10.82479833	     -5.83934800	     -7.74647183
      2.94000000	      1.60103114	      2.68109485	      7.25466908	      0.44580435	      0.92329134	     -0.05111488	     11.29487412	    -12.11494081	     -9.20535715	    -69.15903836	      5.42889826	      6.66133175	     11.56588226	      7.71887506	     -8.54358218	    -28.75095361	     14.45278395	    -12.80264358	    -10.34349801	     -6.24369944	     -6.97953442
      2.95000000	      1.35642927	      2.82149218	      6.94426849	      0.44065396	      0.92236036	     -0.05015469	      9.84528214	    -11.88632456	     -9.30155292	    -68.39095052	      4.66056120	      6.85078996	     12.33991545	      7.82213633	     -8.86347086	    -29.01346843	     14.22389149	    -12.85715679	     -9.78653312	     -6.62678259	     -6.15973470
      2.96000000	      1.08186748	      2.94290444	      6.63129472	      0.43534173	      0.92133049	     -0.04911445	      8.43434124	    -11.60949223	     -9.38314671	    -67.47583119	      3.84670821	      7.18867715	     13.19490184	      7.88558215	     -9.20557737	    -29.33503423	     13.95631394	    -12.90272042	     -9.19212891	     -6.99093383	     -5.32393363
      2.97000000	      0.79132380	      3.04363585	      6.28574611	      0.42987515	      0.92021956	     -0.04794752	      7.06756584	    -11.27635364	     -9.41684124	    -66.42793029	      2.97646643	      7.42230281	     14.10203181	      7.90363951	     -9.56884388	    -29.69336674	     13.73465878	    -12.93126516	     -8.57347818	     -7.33679825	     -4.41823736
      2.98000000	      0.46130143	      3.12085832	      5.93738827	      0.42419897	      0.91899703	     -0.04671617	      5.77089548	    -10.88970404	     -9.41016806	    -65.25805927	      2.11100189	      7.81203758	     15.10017556	      7.87838304	     -9.94077213	    -30.10334521	     13.45501039	    -12.93889998	     -7.91231221	     -7.65369316	     -3.49849090
      2.99000000	      0.14524289	      3.17837434	      5.54896829	      0.41834109	      0.91773117	     -0.04534993	      4.50361550	    -10.45241069	     -9.34010657	    -63.98238491	      1.25077748	      8.09466248	     16.12554025	      7.79416825	    -10.35643473	    -30.56396430	     13.21470550	    -12.94129099	     -7.26669806	     -7.94837102	     -2.51568952
      3.00000000	     -0.19467306	      3.20951873	      5.14941015	      0.41224353	      0.91637686	     -0.04392268	      3.30866295	     -9.96084328	     -9.20320013	    -62.61178281	      0.47594036	      8.48174080	     17.21980828	      7.65987586	    -10.77417768	    -31.06478168	     12.93510381	    -12.91768594	     -6.60349772	     -8.20498727	     -1.50695701
      3.01000000	     -0.51326019	      3.22156451	      4.71906592	      0.40592661	      0.91499694	     -0.04239993	      2.14427462	     -9.43098337	     -8.99768526	    -61.15842749	     -0.21489141	      8.84146717	     18.32806553	      7.47025141	    -11.21526142	    -31.60204498	     12.64313159	    -12.88610460	     -5.97281298	     -8.43030733	     -0.46564522
      3.02000000	     -0.83203831	      3.20727476	      4.27407636	      0.39935482	      0.91356176	     -0.04083054	      1.03912104	     -8.86069558	     -8.72016951	    -59.63426191	     -0.78137429	      9.27071143	     19.46584930	      7.23316468	    -11.63567300	    -32.15677830	     12.33314103	    -12.82455440	     -5.35751575	     -8.61117912	      0.60169269
      3.03000000	     -1.10392589	      3.17964665	      3.80394714	      0.39255383	      0.91214793	     -0.03919825	     -0.05928090	     -8.28006932	     -8.39222434	    -58.04008434	     -1.24997940	      9.62506376	     20.56965376	      6.94955285	    -12.07432582	    -32.71462047	     12.00912878	    -12.77034895	     -4.81236044	     -8.76037870	      1.68725008
      3.04000000	     -1.36984775	      3.13094834	      3.32486508	      0.38549132	      0.91070726	     -0.03755539	     -1.10228080	     -7.68423228	     -8.00556063	    -56.38238151	     -1.61493752	     10.06218297	     21.66894470	      6.63805004	    -12.46623953	    -33.24184080	     11.65703530	    -12.68051409	     -4.29563365	     -8.86522116	      2.76746950
      3.05000000	     -1.55192752	      3.08977073	      2.81835527	      0.37819259	      0.90933564	     -0.03588060	     -2.17537023	     -7.13525852	     -7.61330249	    -54.66299524	     -1.90407904	     10.29964500	     22.67750747	      6.30054986	    -12.90946165	    -33.75157853	     11.33192765	    -12.64943016	     -3.90241905	     -8.95644317	      3.85835396
      3.06000000	     -1.70579682	      3.04098516	      2.29853497	      0.37062258	      0.90797261	     -0.03419355	     -3.21459080	     -6.61272716	     -7.19978370	    -52.88013451	     -2.12594671	     10.53147087	     23.64375375	      5.95059200	    -13.32549001	    -34.20921640	     10.98172458	    -12.62423956	     -3.56508810	     -9.01937533	      4.92236798
      3.07000000	     -1.83006071	      2.98858239	      1.77492358	      0.36276931	      0.90662957	     -0.03252158	     -4.22201588	     -6.13013966	     -6.78603569	    -51.03107087	     -2.30115791	     10.79648360	     24.56164418	      5.59677370	    -13.71899686	    -34.60779799	     10.61707481	    -12.59016966	     -3.29155349	     -9.05504963	      5.93758893
      3.08000000	     -1.89819564	      2.95711401	      1.22608749	      0.35464596	      0.90534801	     -0.03081987	     -5.22298336	     -5.72877441	     -6.39398943	    -49.12272043	     -2.39996849	     10.80668040	     25.39728506	      5.24671123	    -14.15377013	    -34.94213084	     10.22262965	    -12.64115256	     -3.10964483	     -9.09697452	      6.90314120
      3.09000000	     -1.92925507	      2.90684711	      0.66533987	      0.34619377	      0.90409343	     -0.02911362	     -6.18737779	     -5.36004815	     -6.01422891	    -47.16745017	     -2.43989240	     10.77666701	     26.18766057	      4.87174484	    -14.57620057	    -35.23618136	      9.86149431	    -12.69784574	     -3.00484668	     -9.09652892	      7.83667566
      3.10000000	     -1.92765101	      2.84939800	      0.08804473	      0.33741190	      0.90287679	     -0.02736495	     -7.10718563	     -5.03247632	     -5.64105387	    -45.18330200	     -2.36655618	     10.64985612	     26.93187166	      4.48168699	    -14.98507962	    -35.47781418	      9.47468937	    -12.77410967	     -2.96766317	     -9.07577090	      8.70621917
      3.11000000	     -1.91155796	      2.78271829	     -0.50066378	      0.32827164	      0.90167666	     -0.02560452	     -7.95551608	     -4.73496237	     -5.24928210	    -43.20176937	     -2.11555717	     10.43493300	     27.65389441	      4.06548233	    -15.42283568	    -35.67270294	      9.03971462	    -12.86378576	     -2.98316625	     -9.02519238	      9.47190669
